<svg version="1" xmlns="http://www.w3.org/2000/svg" width="933.333" height="933.333" viewBox="0 0 700.000000 700.000000"><path d="M330.4 1.9c-3.6 2.2-5.1 5.5-7 15.6-.2 1.1-2.2 10.8-4.4 21.5-2.3 10.7-4.3 20.6-4.6 22-.2 1.4-1.2 5.9-2.1 10-.9 4.1-1.7 8.6-1.8 10-.2 4 2.6 8.8 6.1 10.5 3.8 1.8 5.1 1.9 9.2.4 5.1-1.8 6.8-5.6 9.9-22.9.2-1.4 1-5 1.8-8 .7-3 1.6-6.9 1.8-8.5.3-1.7 2.2-10.7 4.2-20 2.1-9.4 3.8-18.8 3.8-21.1.2-9-9.1-14.2-16.9-9.5zM242.4 26.4c-5.1 5.1-4.8 9.3 1.4 18.7 2.7 4.1 8.8 13.5 13.7 20.9 4.8 7.4 10.3 15.9 12.3 18.8 6.1 9.4 15.7 10.4 20.5 2.2 3.5-5.8 2.6-8.2-11.1-29-7-10.7-14.5-22.3-16.7-25.7-4.5-7-7.7-9.3-13-9.3-2.9 0-4.5.8-7.1 3.4zM190.2 87c-3.9 2.4-5.6 6.2-4.8 11 .7 4.7 4.9 8.2 12.6 10.7 3.6 1.2 19.7 6.4 35.8 11.7 16.1 5.3 30.3 9.6 31.6 9.6 3.3 0 8.6-4 10.1-7.6 1.6-3.8-.1-9.4-3.6-12.3C269.3 108 199.8 85 196 85c-1.4 0-4 .9-5.8 2zM420 92.7c-5.5.9-15.1 4.6-19.2 7.5-7.4 5.3-11.3 10.1-17.8 22.3-2.3 4.4-4.6 8.4-5 8.8-.4.4-1.5-.4-2.5-1.9-2.9-4.5-9.7-10.4-14.9-13.1-17.3-8.8-37.1-6.5-50.8 6-5.9 5.4-8.6 9.5-20.3 31.1-5.3 9.8-10.7 19.7-11.9 22-1.3 2.2-4.2 7.7-6.6 12.1-2.4 4.4-5.4 10-6.8 12.5-1.3 2.5-4.5 8.2-6.9 12.7-4.4 8.1-4.5 8.2-7.6 7.5-4.1-.9-18.1-.8-23.2.1-10.1 1.9-23.5 8.3-28.4 13.6-5.7 6.2-8 17.1-5.1 24.6.6 1.6 5.6 9.8 11.1 18.1 12.9 19.5 12.7 21.8-1 10.2-5.3-4.6-10.3-9-11.1-9.8-.8-.8-3.1-2.8-5-4.4-1.9-1.6-6.6-5.6-10.3-9-14.6-13.1-28.3-18.7-45.2-18.8-10.2-.1-12.8.2-19.3 2.2-14.3 4.3-28 13.9-32.4 22.4-1.3 2.5-2.2 6.4-2.4 10.2-.5 10 1.6 13.1 24.6 36.4 23.4 23.7 29 30 35.3 39.2 7.5 11.1 10 19.7 10 34.8 0 7.9-1.1 21.8-1.8 23-.1.3-.6 2.5-.9 5-.3 2.5-.8 5.6-1.1 7-.2 1.4-1.4 8.1-2.5 15s-2.5 14.8-3.1 17.6c-1 5.1-1 5.2-3.8 4.1-2.2-.8-3.6-.6-6.7.9-3.7 1.8-5.4 4.6-32.1 53.7-15.4 28.5-28.5 53-29 54.5-1.2 3.5.1 8.3 2.9 10.9 1.9 1.7 20.3 12 53.8 30.1 3.6 1.9 11.5 6.2 17.5 9.5 6.1 3.3 13.3 7.2 16 8.7 2.8 1.5 10 5.4 16 8.7 19.8 10.8 22.9 12.5 29.5 16.1 3.6 1.9 16.4 8.9 28.5 15.5 12.1 6.6 24.5 13.3 27.5 15 3 1.6 10 5.5 15.5 8.5 14.7 8.2 19.8 7.9 25.2-1.7 1.5-2.5 2.8-4.8 2.9-5 .2-.2 3.1 2 6.4 4.8 6.8 5.6 9.3 6.6 14.4 5.7 3.3-.6 6.1-3.3 15.8-15.1 6.3-7.7 37.4-45.2 40.7-49.1 1.4-1.7 4.4-5.2 6.6-7.9 2.2-2.7 6.5-7.9 9.6-11.5 6.9-8.1 8.9-11.1 9.5-14.4.5-2.9-1.9-9.6-3.5-9.6-2 0-1.1-1.6 5.5-9.5 13-15.7 11.2-14.3 18.4-14.6 20.5-.8 40.7-11.1 54.5-28 3.5-4.3 25.3-30.4 56-67.4 16.5-19.8 30.8-36.9 31.7-38 24.9-30 49.7-59.7 51.9-62.2 12.6-14.1 15.6-31.3 8.4-47-4.1-9-12.5-16.2-24.3-20.9-2.2-.9-1.6-1.7 11.5-17.5 7.6-9.1 15-18.1 16.4-20 4-5.3 6.1-11.8 6.5-19.5.6-13.2-3.7-23.6-14-34-6.7-6.6-14.2-11.3-21.3-13-1.3-.4-2.3-.7-2.3-.9 0-.1 1.4-3.2 3.1-6.8 7.6-16.3 4.2-35.9-8.6-48.9-17.5-18-45.8-18.4-63.4-.8-5 4.9-12.4 13.4-14.3 16.4-.8 1.3-.8 1.3-3.9-4.7-6.8-13.6-23.7-23.7-39.2-23.7-3 0-3.6-.4-4.2-2.8-3.6-14.5-16.9-28.3-31-32.1-4.5-1.2-14.7-1.9-18.5-1.4zm15.1 24.5c6.4 2.7 11.5 9.1 12.5 15.5.6 4.3.5 4.7-2.5 7-3.2 2.6-7.4 7.5-54.6 64.3-13.1 15.7-24.9 29.9-26.4 31.6-1.4 1.8-11.4 13.8-22.1 26.7-10.7 12.9-19.9 23.2-20.4 22.7-.7-.7 1.7-5.7 11.4-23.5 14.6-26.6 20.1-36.8 22.7-41.5 5.4-10 10-18.4 13.2-24.3 1.7-3.1 4.5-8.3 6.2-11.5 1.7-3.1 4.2-7.5 5.4-9.7 1.2-2.2 4.4-8.1 7-13 2.6-5 5.1-9.5 5.5-10 .4-.6 2.9-5.1 5.5-10 10.2-19.3 11.7-21.1 19-24.6 5.3-2.5 11.5-2.4 17.6.3zm-87.3 17.9c10.2 3.9 16.4 17.1 12.9 27.3-.6 1.7-8.5 16.8-17.7 33.6-16.6 30.4-20.5 37.6-30.8 56.5-2.9 5.5-5.7 10.4-6.1 10.8-.5.4-4.9-4.6-10-11.2-8.7-11.3-14.6-17.5-20-21.3l-2.3-1.7 1.9-3.3c1.1-1.8 3.7-6.5 5.8-10.3 8-14.7 10-18.4 18.3-33.5 4.6-8.5 10.3-18.9 12.5-23 10.1-19 12.8-22 21-24.5 4.4-1.3 10.1-1.1 14.5.6zm223.7 17.3c7.2 3.1 13.3 12.4 13 20.1-.3 8.4-1.1 9.8-16.7 28.6-2 2.4-9.4 11.4-16.5 19.9-7.1 8.5-13.8 16.6-15 18-1.2 1.4-13.9 16.7-28.3 34s-26.9 32.4-27.8 33.5c-18.3 21.9-26.1 31.5-27.5 33.5-5.2 7.6 2.3 18.3 11.7 16.6 4.4-.8 4.1-.5 47.2-52.6 9.8-11.8 18.3-22 18.9-22.6.5-.7 11.6-14 24.5-29.6 12.9-15.6 24.6-29.3 26-30.4 1.9-1.4 4-1.9 9-1.9 7.8.1 12.9 2.4 18.4 8.5 5.5 6.1 7.2 11 6.7 18.7-.1 1.9-6.3 10.4-14.8 20.3-1.2 1.4-6.1 7.2-10.8 13-4.8 5.8-9.7 11.6-10.8 13-1.2 1.4-6.5 7.7-11.7 14-5.2 6.3-10.5 12.6-11.7 14-1.1 1.4-10.3 12.4-20.3 24.5s-20.3 24.4-22.9 27.4c-6.3 7.4-7.4 9.7-6.8 14.3.9 6.9 7.3 11.1 14.1 9.4 2.5-.6 9.4-8 24.1-26.1 4.4-5.4 8.5-10.3 9.1-10.9.6-.6 6.8-8 13.8-16.4 7.1-8.5 14.2-16.2 16-17.3 12-7.3 26.7 1.3 26.2 15.6-.1 3.6-.8 6-2.6 8.5-2.3 3.3-23.5 29-32 39-2.1 2.5-21 25.2-42 50.5-34.4 41.4-46 55.4-66.9 80.4-8.4 10.1-13.3 14.3-20.9 18.1-7.9 3.9-16.7 5.8-25.6 5.4-4.7-.2-7.9.1-10 1.2-1.7.8-8.1 7.7-14.5 15.4-7.5 9.3-11.7 13.7-12.6 13.2-1.2-.7-6.4-4.8-13.9-11.2-9.2-7.7-15.1-12.6-39.6-33-14-11.6-27.5-22.9-30-25-2.5-2.1-14.4-12-26.5-22s-23.1-19.2-24.5-20.3c-1.4-1.2-4.9-4.1-7.7-6.5-5.6-4.7-5.5-4.1-2.2-11.7 1.2-2.7 17.9-47.4 18.9-50.5 7-21.8 7.5-24.6 7.4-41.5 0-11.9-.3-13.8-3.2-22.2-5.2-15.1-11.8-26.8-34.5-61.2-6.4-9.5-11.3-17.9-11.1-18.6.3-.7 3.3-2.5 6.7-4.1 5.2-2.3 7.7-2.8 15.9-3 10-.2 14.1.7 22 4.7 4.2 2.1 13 10.4 16.3 15.3 1.1 1.6 3 4 4.1 5.5 1.2 1.4 8.1 10.2 15.3 19.6 17.7 22.8 18.4 23.7 19.8 25.1 1.8 1.7 6.8 2.7 10.2 1.9 2.9-.6 6.2-3.8 14.7-14 2.3-2.8 16-19.2 30.4-36.5 14.3-17.3 26.9-32.4 27.8-33.5.9-1.1 6-7.2 11.2-13.5 5.2-6.3 9.7-11.7 10-12 .3-.3 9.4-11.2 20.3-24.2 10.8-13.1 20.9-24.5 22.3-25.5 11.2-7.3 27.1-2.5 32.4 9.9 2.6 6.2 2.4 14.7-.6 19.4-1.5 2.4-13.9 17.6-30.4 37.4-2.1 2.5-8.4 10.1-14.1 17-5.7 6.9-10.9 13.1-11.6 13.8-.8.8-2.6 3-4.1 5-1.5 2.1-3 4-3.4 4.3-.5.3-1.9 2-3.3 3.9-4.4 5.9-2.6 13.7 3.8 17.2 2.7 1.4 8.3 1.2 10.6-.4 1-.7 8-8.7 15.6-17.8 7.5-9.1 14.7-17.6 15.8-19 1.2-1.4 4.2-5 6.7-8s4.7-5.7 5-6c.3-.3 3.7-4.3 7.5-9s7.4-9 8-9.6c.5-.6 2.8-3.3 5-6 6-7.2 15.4-18.6 17.3-20.9 1-1.1 7-8.4 13.5-16.2 6.5-7.8 13.5-15.2 15.4-16.4 6.2-3.8 13.9-4.4 20.8-1.5zM141.8 268.6c5.6 1.7 13.5 6.1 17 9.3 2.8 2.6 14.6 13 19.2 16.9 4.7 4 7.5 6.4 13.5 11.6 15.7 13.8 19.1 16.6 20.5 16.7.8.1 2.6.3 4 .4 3.7.4 7.5-1.9 9.9-6.1 1.2-2 2.3-3.5 2.5-3.3 1.3 1.4 7.3 13.5 9.2 18.7 3.2 8.3 3.8 12.1 3.7 21.7-.1 12.7-3.1 22.5-25 80.1-.3.9-1.1.8-3.1-.1-5.9-2.8-9.7-1-17.8 8.8-3.8 4.5-7.3 8.7-7.9 9.3-.5.6-2.6 3-4.5 5.4-4.7 5.8-15 18.3-16 19.3-.4.5-2.6-.1-4.8-1.2-3.4-1.7-4-2.5-3.6-4.6 1.7-10.1 3.3-19.5 3.8-22 .2-1.1.7-4.3 1.1-7 .5-2.8.9-5.2 1-5.5 0-.3.4-2.7.9-5.3.4-2.7.9-5.7 1.1-6.6.2-1 .6-4.2 1-7.2.4-2.9 1.1-7.6 1.5-10.4.5-2.7.8-11.8.6-20-.4-17-2-23.7-8.6-36.1-7.4-14-15.2-23.2-44.6-53.1-19.7-20-19-18.2-9.1-24.6 9.5-6.2 23.8-8.3 34.5-5.1zm71.5 196.8c2 1.9 8.4 7.3 14.3 12.1 5.8 4.8 11.8 9.7 13.3 11 1.4 1.3 13.6 11.5 27.1 22.6 13.5 11.2 25.6 21.3 27 22.5 1.4 1.2 9.9 8.3 19 15.8s17.4 14.4 18.5 15.4c1.1 1 4.5 3.8 7.5 6.2 3 2.5 5.7 4.7 6 5 .3.3 7.1 6 15.3 12.8 13.9 11.6 15.8 13.6 13.9 14.4-.5.1-8.7 9.7-18.2 21.3-21 25.3-18.8 22.6-29.8 35.7l-8.9 10.6-19.9-16.5c-11-9-20.8-17.2-21.9-18.1-2.7-2.3-25.5-21.3-28-23.4-16.7-13.8-23.4-19.4-25.5-21.2-1.4-1.2-18.1-15.1-37.3-31L151 531.8l4.7-5.7c2.6-3.1 5.2-6.1 5.8-6.7.5-.7 2.6-3.1 4.5-5.5s11.8-14.2 21.9-26.3c10.1-12.2 18.9-22.9 19.5-23.9 1.5-2.3 1.8-2.2 5.9 1.7zm-68.6 29.2l5.4 3-11.2 13.5c-13 15.5-14.9 18.4-14.9 22.2 0 4.6 2.5 7.6 14.2 17.2 6 4.9 11.7 9.7 12.6 10.5.9.8 4.2 3.5 7.2 6s6.6 5.5 8 6.6c1.4 1.2 5.9 5 10 8.4 4.1 3.4 8.4 6.9 9.5 7.8 1.1 1 5.8 4.9 10.5 8.8 81.5 67.5 88.4 73.4 87.7 74.1-.3.2-3.5-1.1-7.1-3.1-3.6-2-9.6-5.2-13.3-7.2-3.8-2-9-4.9-11.8-6.4-6.2-3.4-7.8-4.3-50.5-27.5-19-10.3-36.7-20-39.5-21.5-2.7-1.5-10.6-5.8-17.5-9.5-12.9-7.1-17.3-9.4-27.5-15.1-3.3-1.8-9.8-5.3-14.5-7.8-4.6-2.4-8.6-4.9-8.8-5.5-.2-.6 8.1-16.5 18.3-35.3 26.6-48.7 24.4-45.1 26.2-43.6.9.7 4 2.7 7 4.4z"/><path d="M208.5 508.4c-12.1 5.3-15 22.2-5.3 31.3 13 12.1 33.4 1.8 32-16.2-.4-6-5.3-12.7-11.1-15.1-4.2-1.7-11.6-1.8-15.6 0z"/></svg>